<svg width="33" height="30" viewBox="0 0 33 30" fill="none" xmlns="http://www.w3.org/2000/svg">
<path d="M28.6808 4.22924C27.9744 3.5225 27.1357 2.96187 26.2126 2.57937C25.2895 2.19687 24.3 2 23.3008 2C22.3015 2 21.3121 2.19687 20.389 2.57937C19.4658 2.96187 18.6271 3.5225 17.9207 4.22924L16.4547 5.69527L14.9886 4.22924C13.5618 2.80235 11.6265 2.00074 9.60857 2.00074C7.59065 2.00074 5.65538 2.80235 4.2285 4.22924C2.80161 5.65612 2 7.59139 2 9.6093C2 11.6272 2.80161 13.5625 4.2285 14.9894L16.4547 27.2155L28.6808 14.9894C29.3876 14.283 29.9482 13.4442 30.3307 12.5211C30.7132 11.598 30.9101 10.6085 30.9101 9.6093C30.9101 8.61007 30.7132 7.62062 30.3307 6.69749C29.9482 5.77436 29.3876 4.93564 28.6808 4.22924Z" stroke="#37474F" stroke-width="3.68814" stroke-linecap="round" stroke-linejoin="round"/>
</svg>
